<svg viewBox="0 0 176 176" xmlns="http://www.w3.org/2000/svg">
  <g id="tank">
    <path d="m74.47 98.12a5.19 5.19 0 1 0 5.19 5.19 5.18 5.18 0 0 0 -5.19-5.19z" fill="#FFFFFF"/>
    <path d="m108.64 98.12a5.19 5.19 0 1 0 5.18 5.19 5.19 5.19 0 0 0 -5.18-5.19z" fill="#FFFFFF"/>
    <path d="m91.56 98.12a5.19 5.19 0 1 0 5.18 5.19 5.19 5.19 0 0 0 -5.18-5.19z" fill="#FFFFFF"/>
    <path d="m132.17 0h-88.34a44 44 0 0 0 -43.83 43.83v88.34a44 44 0 0 0 43.83 43.83h88.34a44 44 0 0 0 43.83-43.83v-88.34a44 44 0 0 0 -43.83-43.83zm-89.17 70.7c0-1.13.57-1.71 1.7-1.72 2.88 0 5.78-.06 8.66 0 .53 0 1 .61 1.56.94.25.16.5.43.75.43h14.35c0-.48 0-.9 0-1.32.06-1.08.58-1.69 1.65-1.62 3.86.25 7.54-.78 11.27-1.43a29.47 29.47 0 0 1 5 0c.29-3.06.29-3 3.2-3.06h9.33c2.19 0 2.48.26 2.59 2.5a4.34 4.34 0 0 0 .11.5h1.09a1.7 1.7 0 0 1 1.74 1.08c.89 1.89 1.78 3.77 2.65 5.66a4.39 4.39 0 0 1 .38 1.36c.18 1.76-.44 2.43-2.2 2.43h-34c-.36 0-.73 0-1.09 0a1.58 1.58 0 0 1 -1.74-1.75c0-.36 0-.72 0-1.19-.48 0-.87-.05-1.26-.05h-12.74a1.27 1.27 0 0 0 -1.22.63 2.28 2.28 0 0 1 -1.63.83c-2.78.09-5.56-.06-8.34 0-1.25 0-1.8-.58-1.83-1.83.02-.78.02-1.59.02-2.39zm7.34 24.85a1.59 1.59 0 0 1 -2.64 0q-2-2-4-4c-1-1-1-1.66 0-2.64 1.81-1.86 3.63-3.72 5.52-5.49a2.85 2.85 0 0 1 1.78-.61c2.89-.07 5.79 0 8.68 0h1.34v-2.3c0-1.83.44-2.26 2.28-2.26q11.08 0 22.18 0h37.32 1c1.24.1 1.69.56 1.74 1.8 0 .84 0 1.68.06 2.52 0 0 0 0 .21.19h2.35c1.37 0 1.84.48 1.85 1.87v5.27c0 1.36-.51 1.84-1.88 1.85h-27.75c-15 0-30 0-45 0a3.53 3.53 0 0 0 -2 .82c-1.09.95-2 2.02-3.01 2.98zm80.12 10.5a21.7 21.7 0 0 1 -2.87 1.81c-2.69 1.55-5.38 3.12-8.11 4.61a4.84 4.84 0 0 1 -2.16.58q-24.7 0-49.41 0a5.14 5.14 0 0 1 -2.38-.59c-3.43-1.89-6.85-3.81-10.19-5.84a7.3 7.3 0 0 1 -.28-12.06 6.93 6.93 0 0 1 3.63-1c11.27-.07 22.54 0 33.81 0h33.5c3.34 0 5.44 1.37 6.46 4.22a7.22 7.22 0 0 1 -1.97 8.27z" fill="#FFFFFF"/>
  </g>
</svg>
